<svg data-name="Layer 1" xmlns="http://www.w3.org/2000/svg" viewBox="0 0 574.171 411.085"><path d="M557.195 120.465H243.002a16.695 16.695 0 00-16.68 16.68v50.919a16.695 16.695 0 0016.68 16.68h314.193a16.695 16.695 0 0016.68-16.68v-50.92a16.695 16.695 0 00-16.68-16.68z" fill="#f2f2f2"/><path d="M126 411.085H1a1 1 0 110-2h125a1 1 0 010 2z" fill="#3f3d56"/><path d="M107.647 97.978a9.377 9.377 0 00-1.923 14.25l-9.087 19.405 10.446 8.4 12.448-27.586a9.428 9.428 0 00-11.884-14.469z" fill="#ffb8b8"/><path d="M55.425 105.853a13.058 13.058 0 0117.583 3.942l18.594 27.842 6.456-14.231a4 4 0 014.835-2.166l9.744 3.044a4 4 0 012.596 5.1l-6.67 19.695a17.02 17.02 0 01-25.758 8.568 17.019 17.019 0 01-2.788-2.398L52.615 125.97a13.058 13.058 0 012.81-20.117z" fill="#ccc"/><path d="M115.578 77.085a1.882 1.882 0 011.835 1.929l-.16 6.462.324.03-.117 4.39-.316-.04-.575 23.152a3.265 3.265 0 01-2.922 3.166l-14.722 1.55a2.471 2.471 0 01-2.724-2.625l2.233-32.967a3.057 3.057 0 012.58-2.815l14.213-2.208a1.88 1.88 0 01.35-.024z" fill="#3f3d56"/><path d="M104.184 80.516l7.472-1.16a.619.619 0 00.52-.545.7.7 0 01.589-.616l1.574-.244a1.485 1.485 0 011.712 1.503l-.808 33.567a1.696 1.696 0 01-1.545 1.648l-14.711 1.308a1.31 1.31 0 01-1.423-1.384l1.985-32.662a2.113 2.113 0 011.784-1.96l1.66-.258a1.058 1.058 0 001.191.803z" fill="#fff"/><path fill="#ffb8b8" d="M69.522 398.946l11.432-.001 5.437-44.096-16.873.002.004 44.095z"/><path d="M103.003 409.559l-35.93.003-.001-13.882 22.047-.002a13.882 13.882 0 0113.884 13.881z" fill="#2f2e41"/><path fill="#ffb8b8" d="M34.386 398.946l11.432-.001 5.437-44.096-16.873.002.004 44.095z"/><path d="M67.867 409.559l-35.93.003-.001-13.882 22.048-.002a13.882 13.882 0 0113.883 13.881z" fill="#2f2e41"/><circle cx="67.867" cy="66.306" r="24.561" fill="#ffb8b8"/><path d="M80.508 132.018a37.86 37.86 0 00-18.28-31.212c-6.345-3.739-13.29-5.197-18.817.328a38.354 38.354 0 00-7.836 11.762 50.505 50.505 0 00-.934 37.49l13.152 36.334 30.44 3.297a4 4 0 004.427-4.136z" fill="#2f2e41"/><path d="M49.723 182.246s-22.741 8.49-16.796 44.438c5.336 32.259 1.096 139.33.169 160.974a3.996 3.996 0 003.664 4.153l13.275 1.106a4 4 0 004.309-3.553L61.2 326.39a1 1 0 011.99.025l5.11 60.595a4 4 0 004.112 3.662l11.15-.353a4 4 0 003.871-4.13l-6.568-199.744zM72.796 64.688c8.215 3.368 18.705-.567 22.676-8.507s.829-18.695-6.794-23.247-18.581-2.219-23.688 5.044c-4.155-7.485-15.038-9.393-22.51-5.217s-11.543 12.924-12.026 21.47S32.57 71.199 35.74 79.15c5.128 12.862 21.633 19.788 34.404 14.435-5.846-8.707-4.692-21.45 2.653-28.897z" fill="#2f2e41"/><path data-name="Path 395" d="M105.897 100.956a1.008 1.008 0 01-.606-.201l-.01-.008L102.996 99a1.015 1.015 0 011.235-1.611l1.479 1.134 3.495-4.56a1.014 1.014 0 011.422-.188l-.021.03.022-.03a1.016 1.016 0 01.188 1.423l-4.111 5.361a1.015 1.015 0 01-.808.396z" fill="#6c63ff"/><path d="M557.49 0H243.297a16.695 16.695 0 00-16.68 16.68V67.6a16.695 16.695 0 0016.68 16.68H557.49a16.695 16.695 0 0016.68-16.68V16.68A16.695 16.695 0 00557.49 0zm14.925 67.6a14.946 14.946 0 01-14.925 14.924H243.297a14.946 14.946 0 01-14.925-14.925V16.68a14.946 14.946 0 0114.925-14.924H557.49a14.946 14.946 0 0114.925 14.924z" fill="#3f3d56"/><path d="M307.236 71.172a29.032 29.032 0 1129.032-29.032 29.065 29.065 0 01-29.032 29.032z" fill="#6c63ff"/><path d="M514.622 65.843H363.719a7.023 7.023 0 110-14.046h150.903a7.023 7.023 0 010 14.046zM413.662 35.994h-49.943a7.023 7.023 0 110-14.046h49.943a7.023 7.023 0 010 14.046z" fill="#ccc"/><path data-name="Path 395" d="M305.753 52.352a3.32 3.32 0 01-1.998-.664l-.036-.027-7.524-5.756a3.344 3.344 0 114.069-5.308l4.874 3.738 11.517-15.026a3.343 3.343 0 014.686-.619h.001l-.071.1.073-.1a3.347 3.347 0 01.619 4.688l-13.547 17.666a3.345 3.345 0 01-2.66 1.304z" fill="#fff"/><path d="M422.49 137H108.297a16.695 16.695 0 00-16.68 16.68v50.92a16.695 16.695 0 0016.68 16.68H422.49a16.695 16.695 0 0016.68-16.68v-50.92A16.695 16.695 0 00422.49 137z" fill="#fff"/><path d="M422.49 137H108.297a16.695 16.695 0 00-16.68 16.68v50.92a16.695 16.695 0 0016.68 16.68H422.49a16.695 16.695 0 0016.68-16.68v-50.92A16.695 16.695 0 00422.49 137zm14.925 67.6a14.946 14.946 0 01-14.925 14.924H108.297a14.946 14.946 0 01-14.925-14.925V153.68a14.946 14.946 0 0114.925-14.924H422.49a14.946 14.946 0 0114.925 14.924z" fill="#3f3d56"/><path d="M172.236 208.172a29.032 29.032 0 1129.032-29.032 29.065 29.065 0 01-29.032 29.032z" fill="#6c63ff"/><path d="M379.622 202.843H228.719a7.023 7.023 0 110-14.046h150.903a7.023 7.023 0 010 14.046zM278.662 172.994h-49.943a7.023 7.023 0 110-14.046h49.943a7.023 7.023 0 010 14.046z" fill="#ccc"/><path data-name="Path 395" d="M170.753 189.352a3.32 3.32 0 01-1.998-.664l-.036-.027-7.524-5.756a3.344 3.344 0 114.069-5.308l4.874 3.738 11.517-15.026a3.343 3.343 0 014.686-.619h.001l-.071.1.073-.1a3.347 3.347 0 01.619 4.688l-13.547 17.666a3.345 3.345 0 01-2.66 1.304z" fill="#fff"/><path d="M98.108 148.486a9.377 9.377 0 00-12.796 6.557l-21.12 3.618-.932 13.371 29.754-5.528a9.428 9.428 0 005.094-18.018z" fill="#ffb8b8"/><path d="M61.829 110.108a13.058 13.058 0 016.802 16.686l-12.243 31.162 15.37-2.825a4 4 0 014.539 2.733l3.064 9.737a4 4 0 01-2.706 5.044l-19.977 5.768a17.02 17.02 0 01-21.74-16.257 17.019 17.019 0 01.376-3.657l8.394-39.213a13.058 13.058 0 0118.12-9.178z" fill="#ccc"/></svg>