<svg data-name="Layer 1" xmlns="http://www.w3.org/2000/svg" viewBox="0 0 753.875 703.828"><path d="M355.412 5.872l-23.068 12.586-284.208 155.07-23.069 12.587a48.18 48.18 0 00-19.195 65.296l211.643 387.894a48.18 48.18 0 0065.296 19.195l.06-.032L613.096 478.29l.06-.033a48.18 48.18 0 0019.196-65.296L420.708 25.068a48.18 48.18 0 00-65.296-19.196z" fill="#f2f2f2"/><path d="M362.048 18.033l-27.323 14.908-275.7 150.428-27.322 14.908a34.31 34.31 0 00-13.67 46.499l211.644 387.893a34.31 34.31 0 0046.498 13.67l.06-.033L606.46 466.128l.06-.033a34.31 34.31 0 0013.669-46.498L408.547 31.703a34.31 34.31 0 00-46.499-13.67z" fill="#fff"/><path d="M366.604 138.436l-123.162 67.2a8.014 8.014 0 11-7.677-14.07l123.162-67.2a8.014 8.014 0 117.677 14.07zM408.578 146.345l-152.18 83.034a8.014 8.014 0 01-7.678-14.07l152.181-83.034a8.014 8.014 0 117.677 14.07zM192.81 177.663L79.262 239.617a3.84 3.84 0 00-1.532 5.21l48.352 88.617a3.84 3.84 0 005.21 1.532l113.548-61.954a3.84 3.84 0 001.531-5.21l-48.351-88.618a3.84 3.84 0 00-5.21-1.531zM427.714 250.877L260.66 342.025a8.014 8.014 0 11-7.677-14.07l167.054-91.148a8.014 8.014 0 117.677 14.07zM469.688 258.786L273.615 365.768a8.014 8.014 0 01-7.677-14.07l196.073-106.982a8.014 8.014 0 117.677 14.07z" fill="#f2f2f2"/><circle cx="197.039" cy="382.672" r="34" fill="#f2f2f2"/><path d="M705.75 165.702H329.43a48.18 48.18 0 00-48.125 48.125v441.876a48.18 48.18 0 0048.125 48.125H705.75a48.18 48.18 0 0048.125-48.125V213.827a48.18 48.18 0 00-48.125-48.125z" fill="#e6e6e6"/><path d="M705.75 179.556H329.431a34.31 34.31 0 00-34.27 34.271v441.876a34.31 34.31 0 0034.27 34.271h376.32a34.31 34.31 0 0034.27-34.27V213.826a34.31 34.31 0 00-34.27-34.27z" fill="#fff"/><path d="M652.08 287.432H511.78a8.014 8.014 0 010-16.029H652.08a8.014 8.014 0 110 16.029zM685.139 314.48h-173.36a8.014 8.014 0 110-16.029h173.36a8.014 8.014 0 010 16.028z" fill="#6c63ff"/><path d="M480.73 238.625H351.38a3.84 3.84 0 00-3.84 3.84v100.95a3.84 3.84 0 003.84 3.84h129.35a3.84 3.84 0 003.84-3.84v-100.95a3.84 3.84 0 00-3.84-3.84z" fill="#e6e6e6"/><path d="M386.861 300.615a34.087 34.087 0 01-8.804 23.076c-5.656 6.207-14.076 10.324-22.573 8.62-7.824-1.568-14.182-8.406-13.389-16.679a12.356 12.356 0 0115.267-11.095c7.433 1.929 10.394 12.641 4.2 17.669-1.486 1.207-3.62-.904-2.12-2.121 4.094-3.324 2.829-10.596-2.113-12.42-5.754-2.122-11.85 2.444-12.264 8.326-.49 6.975 4.852 12.227 11.404 13.463 7.088 1.338 14.116-2.29 18.918-7.297a30.955 30.955 0 008.474-21.542 1.5 1.5 0 013 0z" fill="#2f2e41"/><circle cx="416.155" cy="266.167" r="53.519" fill="#6c63ff"/><path d="M413.417 289.003l-.056-2c3.721-.103 7.001-.337 9.466-2.137a6.148 6.148 0 002.382-4.529 3.514 3.514 0 00-1.153-2.894c-1.636-1.382-4.27-.935-6.188-.055l-1.655.759 3.173-23.19 1.982.27-2.7 19.727c2.608-.766 5.024-.436 6.679.961a5.471 5.471 0 011.86 4.493 8.133 8.133 0 01-3.2 6.073c-3.167 2.314-7.283 2.43-10.59 2.522zM431.167 256.929h10.771v2h-10.771zM397.167 256.929h10.771v2h-10.771zM386.51 347.255a53.006 53.006 0 0112.89-5.93 8.568 8.568 0 01.02-4.71 9.426 9.426 0 019.13-6.63h13.04a9.46 9.46 0 019.15 6.64 8.532 8.532 0 01.02 4.7 53.167 53.167 0 0112.89 5.93z" fill="#2f2e41"/><path d="M477.46 246.305a11.571 11.571 0 00-3.53-2.87 8.367 8.367 0 00-3.85-.95 8.772 8.772 0 00-5.11 1.72c-4.07 2.88-6.89 9.09-6.89 16.28 0 9.02 4.44 16.5 10.21 17.8a8.253 8.253 0 001.79.2c6.61 0 12-8.07 12-18 0-5.76-1.81-10.89-4.62-14.18zM367.54 243.775h-.01a8.578 8.578 0 00-4.45-1.29 8.367 8.367 0 00-3.85.95 11.571 11.571 0 00-3.53 2.87l-.01.01c-2.8 3.29-4.61 8.42-4.61 14.17 0 7.76 3.28 14.38 7.88 16.91a8.542 8.542 0 004.12 1.09 7.724 7.724 0 00.96-.06h.01c6.16-.74 11.03-8.5 11.03-17.94 0-7.56-3.13-14.05-7.54-16.71z" fill="#3f3d56"/><path d="M359.71 275.674a1.501 1.501 0 001.421-1.98 58.499 58.499 0 11112.688-6.575 1.5 1.5 0 002.935.62 61.5 61.5 0 10-118.465 6.914 1.5 1.5 0 001.42 1.021z" fill="#3f3d56"/><path d="M443.04 231.492c2.12 2.892 1.075 6.79-1.158 9.285-2.905 3.245-7.539 3.45-11.562 2.848-4.514-.676-9.302-2.791-13.873-1.366-3.895 1.215-6.674 4.748-10.72 5.635-3.59.787-7.881-.254-9.14-4.08-.604-1.838 2.292-2.626 2.893-.797.814 2.475 4.329 2.425 6.342 1.74 3.227-1.099 5.713-3.771 8.885-5.048 3.74-1.505 7.796-.825 11.603.032 3.589.808 7.718 2.006 11.293.497 2.645-1.117 4.75-4.635 2.847-7.232-1.142-1.56 1.46-3.058 2.59-1.514z" fill="#2f2e41"/><path d="M651.87 415.406H461.567a8.014 8.014 0 110-16.029h190.301a8.014 8.014 0 010 16.029zM684.928 442.453h-223.36a8.014 8.014 0 110-16.028h223.36a8.014 8.014 0 110 16.028zM651.87 512.62H461.567a8.014 8.014 0 110-16.03h190.301a8.014 8.014 0 110 16.03zM684.928 539.667h-223.36a8.014 8.014 0 110-16.028h223.36a8.014 8.014 0 110 16.028z" fill="#e6e6e6"/><circle cx="386.25" cy="420.614" r="34" fill="#e6e6e6"/><circle cx="386.25" cy="518.614" r="34" fill="#e6e6e6"/><path d="M651.87 610.62H461.567a8.014 8.014 0 110-16.03h190.301a8.014 8.014 0 110 16.03zM684.928 637.667h-223.36a8.014 8.014 0 110-16.028h223.36a8.014 8.014 0 110 16.028z" fill="#e6e6e6"/><circle cx="386.25" cy="616.614" r="34" fill="#e6e6e6"/></svg>