<svg data-name="Layer 1" xmlns="http://www.w3.org/2000/svg" viewBox="0 0 813.31 791.716"><path d="M722.259 699.89s.621-13.026 13.366-11.512" fill="#3f3d56"/><circle cx="718.658" cy="681.115" r="6.379" fill="#fff"/><path fill="#3f3d56" d="M717.62 691.857h1.801v12.604h-1.801z"/><path d="M289.22 316.92q0 4.785-.31 9.49a143.754 143.754 0 01-13.47 52.19c-.06.14-.13.27-.19.4-.36.76-.73 1.52-1.11 2.27a142.036 142.036 0 01-7.65 13.5 144.462 144.462 0 01-118.56 66.72l1.43 82.24 18.65-9.82 3.33 6.33-21.84 11.5 2.67 152.74.03 2.04-14.42 3.21.03-2.05 4.54-246.18a144.175 144.175 0 01-102-44.38c-.91-.94-1.81-1.91-2.69-2.87-.04-.04-.07-.08-.1-.11a144.767 144.767 0 01-26.34-40.76c.14.16.29.31.43.47a144.642 144.642 0 0168.58-186.38c.5-.25 1.01-.49 1.51-.74a144.752 144.752 0 01187.53 56.93c.88 1.48 1.73 2.99 2.55 4.51a143.852 143.852 0 0117.4 68.75z" fill="#e5e5e5"/><circle cx="269.754" cy="189.539" r="189.539" fill="#fff"/><path d="M129.804 62.942c-41.152 96.26 3.523 207.655 99.784 248.807a189.554 189.554 0 00216.045-48.204c-41.147 96.263-152.54 140.944-248.804 99.797S55.885 210.802 97.032 114.538a189.556 189.556 0 0132.772-51.596z" opacity=".2" style="isolation:isolate"/><path fill="#3f3d56" d="M280.01 717.56l-19.36-5.43.04-2.08 5.8-315.28.29-15.72.01-.46 1.01-55.08 1.47-79.84v-.01l1-54.12h.53l1.02 58.63 1.33 76.31.95 54.15v.4l.04 2.23v.01l1.84 105.55.19 10.49 3.8 218.15.04 2.1z"/><path fill="#3f3d56" d="M269.088 490.447l31.331-16.496 4.367 8.294-31.331 16.495z"/><path fill="#cbcbcb" d="M176.669 755.716h89.372v2h-89.372zM340.668 789.716h89.372v2h-89.372zM595.668 763.716h89.372v2h-89.372z"/><path d="M644.22 682.34v-58.174s22.67 41.243 0 58.174z" fill="#f1f1f1"/><path d="M645.62 682.33l-42.854-39.341s45.713 11.19 42.854 39.34zM201.22 696.34v-58.174s22.67 41.243 0 58.174z" fill="#f1f1f1"/><path d="M202.62 696.33l-42.854-39.341s45.713 11.19 42.854 39.34zM355.22 738.34V666s28.191 51.286 0 72.34z" fill="#f1f1f1"/><path d="M356.961 738.327l-53.29-48.921s56.846 13.916 53.29 48.921z" fill="#f1f1f1"/><path fill="#cbcbcb" d="M813.31 729.49l-.55 1.93-167.83-47.8-126.43 27.87-161.69 27.62-.22-.06-76.58-21.49-19.36-5.43-59.13-16.6-49.32 10.99-14.42 3.21-31.35 6.99-.43-1.95 31.81-7.09 14.36-3.2 49.41-11.01.24.06 58.87 16.52 19.28 5.41 76.94 21.6 161.2-27.53 126.88-27.97.25.06 168.07 47.87z"/><path d="M513.051 121.437l12.795-10.234c-9.94-1.096-14.024 4.325-15.695 8.615-7.766-3.224-16.219 1.002-16.219 1.002l25.6 9.294a19.372 19.372 0 00-6.48-8.677zM43.051 117.437l12.795-10.234c-9.94-1.096-14.024 4.325-15.695 8.615-7.766-3.224-16.219 1.002-16.219 1.002l25.6 9.294a19.372 19.372 0 00-6.48-8.677zM485.051 312.437l12.795-10.234c-9.94-1.096-14.024 4.325-15.695 8.615-7.766-3.224-16.219 1.002-16.219 1.002l25.6 9.294a19.372 19.372 0 00-6.48-8.677z" fill="#3f3d56"/><path fill="#ffb7b7" d="M398.156 752.578l9.779 3.633 18.667-35.99-14.433-5.362-14.013 37.719z"/><path d="M396.847 748.458l19.259 7.155a13.093 13.093 0 017.713 16.833l-.148.4-31.532-11.716z" fill="#2f2e41"/><path fill="#ffb7b7" d="M494.392 762.733l10.432-.001 4.963-40.238-15.397.001.002 40.238z"/><path d="M492.582 759.327l20.544-.001h.001a13.093 13.093 0 0113.093 13.092v.426l-33.638.001zM446.63 483.664l3.404-6.808 28.931 14.466-.85 5.956 5.53 7.233s9.36 5.106 7.659 22.124l-1.702 16.168-2.128 20.847 14.892 51.481 7.658 68.074 5.53 54.884-26.803-1.276-24.677-89.347-43.397 96.154-29.782-7.658 40.844-95.303 5.106-39.994s-3.404-21.273 12.763-35.738l-2.552-7.659v-9.437l-8.51-45.022z" fill="#2f2e41"/><path opacity=".2" d="M444.872 581.23l.963-.272 18.72 66.372-.962.271z"/><path fill="#3f3d56" d="M489.176 567.905h-41.695v-4.255h41.695z"/><ellipse cx="489.176" cy="566.203" rx="1.702" ry="4.255" fill="#3f3d56"/><circle cx="663.719" cy="506.898" r="22.682" transform="rotate(-61.337 521.396 642.847)" fill="#ffb7b7"/><circle cx="435.665" cy="424.594" r="20.066" fill="#2f2e41"/><path d="M410.201 422.444a20.067 20.067 0 1039.143 8.23 20.067 20.067 0 01-39.143-8.23z" fill="#2f2e41"/><path d="M489.473 446.46a23.724 23.724 0 11-14.157-19.1c3.963-3.196 8.875-2.206 12.87 1.167 4.516 3.814 5.857 6.433 9.36 12.705-3.445.483-4.629 4.744-8.073 5.227z" fill="#2f2e41"/><path d="M406.099 514.67c.254 6.722.757 19.953.757 20.628 0 .712 10.03 21.48 14.364 30.42v.004c.308.63.585 1.2.83 1.704a4.028 4.028 0 003.702 2.275l18.938-.34a4.036 4.036 0 003.966-3.934l2.112-83.315A2.06 2.06 0 00448.71 480h-24.422a5.49 5.49 0 00-4.94 3.1l-11.722 24.25a15.5 15.5 0 00-1.527 7.32z" fill="#fff"/><path d="M448.985 559.71a54.232 54.232 0 0012.94-10.936 60.008 60.008 0 0014.955-34.888c.963-11.072-1.234-19.303-6.53-24.463-6.731-6.559-15.894-5.606-16.28-5.562l-.411.047-6.208 5.252 1.757 2.076 5.554-4.7c1.7-.085 8.642-.103 13.712 4.857 4.668 4.565 6.584 12.054 5.697 22.258a57.308 57.308 0 01-14.208 33.236 52.656 52.656 0 01-12.29 10.44z" fill="#fff"/><path fill="#3f3d56" d="M413.563 528.945l.183-.888 33.089 6.796-.182.888z"/><path fill="#3f3d56" d="M433.406 532.632l2.149-52.651.906.037-2.15 52.651zM406.099 514.67c.254 6.722.757 19.953.757 20.628 0 .712 10.03 21.48 14.364 30.42l-8.077-46.9a10.338 10.338 0 00-6.713-7.973 15.214 15.214 0 00-.331 3.825z"/><path d="M455.725 612.959a7.98 7.98 0 012.595-11.957l-1.642-18.16 10.792-3.689 1.958 25.678a8.022 8.022 0 01-13.703 8.128z" fill="#ffb7b7"/><path d="M448.661 503.359a12.45 12.45 0 018.422-12.743 11.31 11.31 0 017.112.007 12.449 12.449 0 018.434 11.848l.809 92.222-19.123.694z" fill="#cbcbcb"/></svg>