<svg data-name="Layer 1" xmlns="http://www.w3.org/2000/svg" viewBox="0 0 729 658"><path fill="#6c63ff" d="M0 93h298v168H0z"/><path d="M320 246H20V76h300zm-298-2h296V78H22z" fill="#3f3d56"/><path fill="#f2f2f2" d="M409 17h298v168H409z"/><path d="M729 170H429V0h300zm-298-2h296V2H431z" fill="#3f3d56"/><path d="M512.114 658h-381a1 1 0 110-2h381a1 1 0 110 2z" fill="#ccc"/><path d="M369.631 421.732a12.38 12.38 0 0115.115-11.485l16.372-23.073 16.448 6.53-23.578 32.258a12.447 12.447 0 01-24.357-4.23z" fill="#a0616a"/><path d="M387.591 401.89l29.11-48.957-11.86-31.626 16.152-43.074.596.256c.39.167 9.568 4.263 10.928 18.93l18.562 58.336-49.54 64.267z" fill="#3f3d56"/><path d="M229.499 221.908a12.38 12.38 0 0110.282 15.958l21.738 18.107-7.782 15.894-30.339-26.002a12.447 12.447 0 016.1-23.957z" fill="#a0616a"/><path d="M247.893 241.349l46.56 32.807 32.448-9.38 41.696 19.435-.3.574c-.198.376-4.99 9.21-19.719 9.432l-59.597 13.996-60.245-54.36z" fill="#3f3d56"/><path fill="#a0616a" d="M333.089 640.297h-16.186l-7.701-62.434 23.89.001-.003 62.433z"/><path d="M300.573 635.672h35.985v19.655h-50.872v-4.769a14.887 14.887 0 0114.887-14.886z" fill="#2f2e41"/><path fill="#a0616a" d="M397.784 640.297h-16.187l-7.7-62.434 23.889.001-.002 62.433z"/><path d="M365.267 635.672h35.985v19.655H350.38v-4.769a14.887 14.887 0 0114.887-14.886zM403.54 412.407l-1.32 92.421-1.32 121.467-29.047-2.641-14.523-167.677-18.484 167.677h-29.987l-3.02-168.997 10.562-36.969 87.139-5.281z" fill="#2f2e41"/><path d="M313.506 418.252l-4.425-.191 20.554-113.227-8.416-34.224a7.49 7.49 0 014.642-8.798l15.142-5.678 5.349-14.712 42.206 4.548 1.038 11.498c4.574 1.467 42.237 14.01 39.639 28.302-2.565 14.107-17.71 58.488-18.479 60.738l-2.652 63.649-.326.163c-.393.196-29.484 14.5-61.089 14.498-11.13 0-22.577-1.775-33.183-6.566z" fill="#3f3d56"/><circle cx="581.116" cy="350.496" r="30.389" transform="rotate(-61.337 349.732 458.668)" fill="#a0616a"/><path d="M390.416 233.17c-5.791 6.17-16.547 2.858-17.301-5.57a10.182 10.182 0 01.012-1.966c.39-3.733 2.547-7.123 2.03-11.064a5.802 5.802 0 00-1.062-2.717c-4.615-6.18-15.448 2.765-19.803-2.83-2.671-3.43.468-8.831-1.581-12.665-2.705-5.06-10.717-2.564-15.741-5.336-5.59-3.083-5.256-11.66-1.576-16.877 4.487-6.362 12.356-9.757 20.126-10.246s15.487 1.611 22.741 4.438c8.243 3.212 16.416 7.652 21.488 14.899 6.169 8.814 6.762 20.663 3.677 30.969-1.876 6.27-8.28 13.928-13.01 18.965z" fill="#2f2e41"/></svg>